<?xml version="1.0" encoding="UTF-8" standalone="no"?>
<!DOCTYPE svg PUBLIC "-//W3C//DTD SVG 1.1//EN"
 "http://www.w3.org/Graphics/SVG/1.1/DTD/svg11.dtd">
<!-- Generated by graphviz version 9.0.0 (20230911.1827)
 -->
<!-- Pages: 1 -->
<svg width="239pt" height="291pt"
 viewBox="0.00 0.00 238.52 290.82" xmlns="http://www.w3.org/2000/svg" xmlns:xlink="http://www.w3.org/1999/xlink">
<g id="graph0" class="graph" transform="scale(1 1) rotate(0) translate(4 286.82)">
<polygon fill="white" stroke="none" points="-4,4 -4,-286.82 234.52,-286.82 234.52,4 -4,4"/>
<!-- jqt -->
<g id="node1" class="node">
<title>jqt</title>
<ellipse fill="none" stroke="black" cx="96.93" cy="-42.03" rx="27" ry="18"/>
<text text-anchor="middle" x="96.93" y="-35.85" font-family="Times,serif" font-size="14.00">jqt</text>
</g>
<!-- rhn -->
<g id="node2" class="node">
<title>rhn</title>
<ellipse fill="none" stroke="black" cx="180.15" cy="-21.28" rx="27" ry="18"/>
<text text-anchor="middle" x="180.15" y="-15.1" font-family="Times,serif" font-size="14.00">rhn</text>
</g>
<!-- jqt&#45;&#45;rhn -->
<g id="edge1" class="edge">
<title>jqt&#45;&#45;rhn</title>
<path fill="none" stroke="black" d="M122.35,-35.69C132.58,-33.14 144.35,-30.2 154.59,-27.65"/>
</g>
<!-- xhk -->
<g id="node3" class="node">
<title>xhk</title>
<ellipse fill="none" stroke="black" cx="141.15" cy="-18" rx="27" ry="18"/>
<text text-anchor="middle" x="141.15" y="-11.82" font-family="Times,serif" font-size="14.00">xhk</text>
</g>
<!-- jqt&#45;&#45;xhk -->
<g id="edge2" class="edge">
<title>jqt&#45;&#45;xhk</title>
<path fill="none" stroke="black" d="M118.26,-30.44C118.79,-30.15 119.32,-29.86 119.85,-29.57"/>
</g>
<!-- nvd -->
<g id="node4" class="node">
<title>nvd</title>
<ellipse fill="none" stroke="black" cx="67.55" cy="-119.87" rx="27" ry="18"/>
<text text-anchor="middle" x="67.55" y="-113.7" font-family="Times,serif" font-size="14.00">nvd</text>
</g>
<!-- jqt&#45;&#45;nvd -->
<g id="edge3" class="edge">
<title>jqt&#45;&#45;nvd</title>
<path fill="none" stroke="black" d="M90.26,-59.69C85.49,-72.34 79.08,-89.31 74.29,-102.01"/>
</g>
<!-- rhn&#45;&#45;xhk -->
<g id="edge12" class="edge">
<title>rhn&#45;&#45;xhk</title>
<path fill="none" stroke="black" d="M153.06,-19C152.96,-18.99 152.86,-18.98 152.75,-18.98"/>
</g>
<!-- hfx -->
<g id="node9" class="node">
<title>hfx</title>
<ellipse fill="none" stroke="black" cx="159.42" cy="-83.09" rx="27" ry="18"/>
<text text-anchor="middle" x="159.42" y="-76.91" font-family="Times,serif" font-size="14.00">hfx</text>
</g>
<!-- rhn&#45;&#45;hfx -->
<g id="edge13" class="edge">
<title>rhn&#45;&#45;hfx</title>
<path fill="none" stroke="black" d="M174.15,-39.16C171.38,-47.43 168.1,-57.22 165.33,-65.46"/>
</g>
<!-- bvb -->
<g id="node13" class="node">
<title>bvb</title>
<ellipse fill="none" stroke="black" cx="189.88" cy="-103.52" rx="27" ry="18"/>
<text text-anchor="middle" x="189.88" y="-97.35" font-family="Times,serif" font-size="14.00">bvb</text>
</g>
<!-- rhn&#45;&#45;bvb -->
<g id="edge14" class="edge">
<title>rhn&#45;&#45;bvb</title>
<path fill="none" stroke="black" d="M182.31,-39.53C183.92,-53.16 186.11,-71.7 187.72,-85.32"/>
</g>
<!-- xhk&#45;&#45;hfx -->
<g id="edge7" class="edge">
<title>xhk&#45;&#45;hfx</title>
<path fill="none" stroke="black" d="M146.24,-36.13C148.78,-45.16 151.83,-56.04 154.36,-65.05"/>
</g>
<!-- lhk -->
<g id="node12" class="node">
<title>lhk</title>
<ellipse fill="none" stroke="black" cx="27" cy="-177.31" rx="27" ry="18"/>
<text text-anchor="middle" x="27" y="-171.13" font-family="Times,serif" font-size="14.00">lhk</text>
</g>
<!-- nvd&#45;&#45;lhk -->
<g id="edge25" class="edge">
<title>nvd&#45;&#45;lhk</title>
<path fill="none" stroke="black" d="M55.82,-136.49C50.4,-144.17 43.97,-153.27 38.56,-160.93"/>
</g>
<!-- rsh -->
<g id="node5" class="node">
<title>rsh</title>
<ellipse fill="none" stroke="black" cx="159.21" cy="-247.83" rx="27" ry="18"/>
<text text-anchor="middle" x="159.21" y="-241.65" font-family="Times,serif" font-size="14.00">rsh</text>
</g>
<!-- frs -->
<g id="node6" class="node">
<title>frs</title>
<ellipse fill="none" stroke="black" cx="51.63" cy="-264.82" rx="27" ry="18"/>
<text text-anchor="middle" x="51.63" y="-258.64" font-family="Times,serif" font-size="14.00">frs</text>
</g>
<!-- rsh&#45;&#45;frs -->
<g id="edge4" class="edge">
<title>rsh&#45;&#45;frs</title>
<path fill="none" stroke="black" d="M132.62,-252.03C116.07,-254.64 94.86,-257.99 78.29,-260.61"/>
</g>
<!-- pzl -->
<g id="node7" class="node">
<title>pzl</title>
<ellipse fill="none" stroke="black" cx="155.76" cy="-166.34" rx="27" ry="18"/>
<text text-anchor="middle" x="155.76" y="-160.17" font-family="Times,serif" font-size="14.00">pzl</text>
</g>
<!-- rsh&#45;&#45;pzl -->
<g id="edge5" class="edge">
<title>rsh&#45;&#45;pzl</title>
<path fill="none" stroke="black" d="M158.43,-229.34C157.86,-216 157.1,-198.08 156.54,-184.76"/>
</g>
<!-- lsr -->
<g id="node8" class="node">
<title>lsr</title>
<ellipse fill="none" stroke="black" cx="97.09" cy="-221.83" rx="27" ry="18"/>
<text text-anchor="middle" x="97.09" y="-215.65" font-family="Times,serif" font-size="14.00">lsr</text>
</g>
<!-- rsh&#45;&#45;lsr -->
<g id="edge6" class="edge">
<title>rsh&#45;&#45;lsr</title>
<path fill="none" stroke="black" d="M136.08,-238.15C130.84,-235.95 125.27,-233.62 120.03,-231.43"/>
</g>
<!-- frs&#45;&#45;lsr -->
<g id="edge31" class="edge">
<title>frs&#45;&#45;lsr</title>
<path fill="none" stroke="black" d="M67.53,-249.78C72.04,-245.52 76.94,-240.89 81.43,-236.64"/>
</g>
<!-- qnr -->
<g id="node11" class="node">
<title>qnr</title>
<ellipse fill="none" stroke="black" cx="50.14" cy="-199.98" rx="27" ry="18"/>
<text text-anchor="middle" x="50.14" y="-193.8" font-family="Times,serif" font-size="14.00">qnr</text>
</g>
<!-- frs&#45;&#45;qnr -->
<g id="edge32" class="edge">
<title>frs&#45;&#45;qnr</title>
<path fill="none" stroke="black" d="M51.21,-246.41C51,-237.57 50.76,-227.02 50.56,-218.21"/>
</g>
<!-- frs&#45;&#45;lhk -->
<g id="edge33" class="edge">
<title>frs&#45;&#45;lhk</title>
<path fill="none" stroke="black" d="M46.53,-246.69C42.3,-231.67 36.32,-210.43 32.1,-195.42"/>
</g>
<!-- pzl&#45;&#45;nvd -->
<g id="edge17" class="edge">
<title>pzl&#45;&#45;nvd</title>
<path fill="none" stroke="black" d="M134.41,-155.09C120.64,-147.84 102.8,-138.44 89.01,-131.18"/>
</g>
<!-- pzl&#45;&#45;lsr -->
<g id="edge18" class="edge">
<title>pzl&#45;&#45;lsr</title>
<path fill="none" stroke="black" d="M140.04,-181.21C131.62,-189.17 121.28,-198.95 112.85,-206.92"/>
</g>
<!-- pzl&#45;&#45;hfx -->
<g id="edge19" class="edge">
<title>pzl&#45;&#45;hfx</title>
<path fill="none" stroke="black" d="M156.57,-147.86C157.18,-134.07 158.01,-115.3 158.61,-101.51"/>
</g>
<!-- lsr&#45;&#45;lhk -->
<g id="edge26" class="edge">
<title>lsr&#45;&#45;lhk</title>
<path fill="none" stroke="black" d="M77.19,-209.19C67.64,-203.12 56.23,-195.87 46.7,-189.82"/>
</g>
<!-- cmg -->
<g id="node10" class="node">
<title>cmg</title>
<ellipse fill="none" stroke="black" cx="107.41" cy="-158.87" rx="27" ry="18"/>
<text text-anchor="middle" x="107.41" y="-152.7" font-family="Times,serif" font-size="14.00">cmg</text>
</g>
<!-- cmg&#45;&#45;nvd -->
<g id="edge8" class="edge">
<title>cmg&#45;&#45;nvd</title>
<path fill="none" stroke="black" d="M92.12,-143.91C89.13,-140.99 86,-137.92 83.01,-134.99"/>
</g>
<!-- cmg&#45;&#45;qnr -->
<g id="edge9" class="edge">
<title>cmg&#45;&#45;qnr</title>
<path fill="none" stroke="black" d="M88.66,-172.33C82.26,-176.92 75.12,-182.05 68.74,-186.63"/>
</g>
<!-- cmg&#45;&#45;lhk -->
<g id="edge10" class="edge">
<title>cmg&#45;&#45;lhk</title>
<path fill="none" stroke="black" d="M81.53,-164.81C72.35,-166.91 62.02,-169.28 52.84,-171.39"/>
</g>
<!-- cmg&#45;&#45;bvb -->
<g id="edge11" class="edge">
<title>cmg&#45;&#45;bvb</title>
<path fill="none" stroke="black" d="M126.54,-146.04C139.77,-137.16 157.3,-125.39 170.57,-116.48"/>
</g>
<!-- qnr&#45;&#45;nvd -->
<g id="edge20" class="edge">
<title>qnr&#45;&#45;nvd</title>
<path fill="none" stroke="black" d="M54.09,-181.8C56.94,-168.69 60.77,-151.07 63.61,-137.98"/>
</g>
<!-- bvb&#45;&#45;xhk -->
<g id="edge15" class="edge">
<title>bvb&#45;&#45;xhk</title>
<path fill="none" stroke="black" d="M180.25,-86.63C171.76,-71.73 159.46,-50.13 150.93,-35.15"/>
</g>
<!-- bvb&#45;&#45;hfx -->
<g id="edge16" class="edge">
<title>bvb&#45;&#45;hfx</title>
<path fill="none" stroke="black" d="M170.42,-90.47C170.33,-90.4 170.23,-90.34 170.14,-90.28"/>
</g>
<!-- ntq -->
<g id="node14" class="node">
<title>ntq</title>
<ellipse fill="none" stroke="black" cx="203.52" cy="-44.39" rx="27" ry="18"/>
<text text-anchor="middle" x="203.52" y="-38.22" font-family="Times,serif" font-size="14.00">ntq</text>
</g>
<!-- ntq&#45;&#45;jqt -->
<g id="edge21" class="edge">
<title>ntq&#45;&#45;jqt</title>
<path fill="none" stroke="black" d="M176.07,-43.78C160.15,-43.43 140.18,-42.99 124.28,-42.63"/>
</g>
<!-- ntq&#45;&#45;xhk -->
<g id="edge22" class="edge">
<title>ntq&#45;&#45;xhk</title>
<path fill="none" stroke="black" d="M180.3,-34.56C175.03,-32.34 169.44,-29.97 164.19,-27.75"/>
</g>
<!-- ntq&#45;&#45;hfx -->
<g id="edge23" class="edge">
<title>ntq&#45;&#45;hfx</title>
<path fill="none" stroke="black" d="M186.85,-59.02C183.34,-62.1 179.63,-65.35 176.12,-68.44"/>
</g>
<!-- ntq&#45;&#45;bvb -->
<g id="edge24" class="edge">
<title>ntq&#45;&#45;bvb</title>
<path fill="none" stroke="black" d="M199.35,-62.45C197.66,-69.79 195.71,-78.25 194.02,-85.57"/>
</g>
<!-- rzs -->
<g id="node15" class="node">
<title>rzs</title>
<ellipse fill="none" stroke="black" cx="115.14" cy="-257.26" rx="27" ry="18"/>
<text text-anchor="middle" x="115.14" y="-251.08" font-family="Times,serif" font-size="14.00">rzs</text>
</g>
<!-- rzs&#45;&#45;rsh -->
<g id="edge27" class="edge">
<title>rzs&#45;&#45;rsh</title>
<path fill="none" stroke="black" d="M141.29,-251.66C141.44,-251.63 141.58,-251.6 141.73,-251.57"/>
</g>
<!-- rzs&#45;&#45;lsr -->
<g id="edge28" class="edge">
<title>rzs&#45;&#45;lsr</title>
<path fill="none" stroke="black" d="M106.33,-239.96C106.18,-239.68 106.04,-239.39 105.9,-239.11"/>
</g>
<!-- rzs&#45;&#45;cmg -->
<g id="edge29" class="edge">
<title>rzs&#45;&#45;cmg</title>
<path fill="none" stroke="black" d="M113.73,-239.21C112.34,-221.57 110.24,-194.85 108.85,-177.14"/>
</g>
<!-- rzs&#45;&#45;qnr -->
<g id="edge30" class="edge">
<title>rzs&#45;&#45;qnr</title>
<path fill="none" stroke="black" d="M98.74,-242.8C88.96,-234.18 76.58,-223.28 66.76,-214.62"/>
</g>
</g>
</svg>
